<svg
  width="2000"
  height="2389"
  viewBox="0 0 2000 2389"
  xmlns="http://www.w3.org/2000/svg">
  <path
    d="M1000 0C447.68 0 0 447.68 0 1000s447.68 1000 1000 1000 1000-447.68 1000-1000S1552.32 0 1000 0zm345.624 1765.14c-16.15 89.59-64.41 162.9-134.18 216.25-45.44 35.35-96.73 57.01-149.54 65.54-18.76 3.58-37.74 5.38-56.85 5.38-99.25 0-191.32-53.55-238.58-139.74-18.76-40.43-30.46-87.44-30.46-138.86v-8.13h122.91v13.8c0 57.74 21.17 111.61 59.36 153.06 40.95 43.4 97.62 67.52 157.76 67.52 17.7 0 35.49-1.8 53.08-5.38 40.94-7.54 82.18-23.24 119.63-46.48 26.68-17.7 50.33-41.42 67.53-68.97v63.02h122.9v-82.59zm0-133.64c-16.15 71.79-44.48 137.53-82.67 195.87-38.19 58.35-85.06 106.28-138.64 144.47-15.58 11.77-31.17 22.15-46.86 31.57-11.16 6.91-22.33 13.03-33.49 18.36-5.61 2.72-11.23 5.35-16.84 7.91-5.41 2.52-10.82 4.9-16.23 7.26-26.9 11.86-53.87 22.09-80.84 30.64-58.8 19.33-119.05 29.03-179.58 29.03-17.7 0-35.49-1.8-53.09-5.38-56.64-10.8-112.68-32.49-163.07-63.04-79.73-46.9-141.23-116.97-177.56-200.09-16.15-39.35-28.7-80.42-37.44-122.23h123.8c32.47 88.99 73.5 171.97 123.32 245.29 40.87 58.95 87.01 110.38 138.64 153.06 34.25 28.69 70.5 51.72 108.68 68.52 20.14 9.68 40.38 17.29 60.72 23.02 13.31 3.18 26.67 5.75 40.04 7.71 8.45 1.06 16.92 1.89 25.4 2.52 9.43.67 18.87 1.13 28.32 1.42 11.72.38 23.46.59 35.19.59 96.95 0 188.49-35.48 259.07-99.65 8.74-7.32 17.33-14.87 25.69-22.6v-98.96h-121.63v98.95z"
    fill="#007396"
  />
</svg>
